<svg xmlns="http://www.w3.org/2000/svg" viewBox="0 0 1297.26 329.66"><defs><style>.a{fill:#6cab36;}</style></defs><title>eha-logo</title><path class="a" d="M327.18,164.84"/><path class="a" d="M0,164.84A164.75,164.75,0,0,1,164.83,0h0a2.49,2.49,0,0,1,2.5,2.49h0a2.48,2.48,0,0,1-2.5,2.5h0a159.36,159.36,0,0,0-113,46.79h0A159.43,159.43,0,0,0,5,164.84H5A159.42,159.42,0,0,0,51.78,277.9h0a159.43,159.43,0,0,0,113,46.81h0a2.46,2.46,0,0,1,2.5,2.47h0a2.47,2.47,0,0,1-2.5,2.49h0A164.74,164.74,0,0,1,0,164.84H0Z"/><path class="a" d="M12.53,164.84A152.23,152.23,0,0,1,164.83,12.53h0A152.24,152.24,0,0,1,317.15,164.84h0a152.22,152.22,0,0,1-152.32,152.3h0v-5A146.84,146.84,0,0,0,269,269h0a146.83,146.83,0,0,0,43.12-104.18h0A146.8,146.8,0,0,0,269,60.66h0A146.75,146.75,0,0,0,164.83,17.52h0A146.72,146.72,0,0,0,60.63,60.66h0A146.82,146.82,0,0,0,17.51,164.84h0A146.85,146.85,0,0,0,60.63,269h0a146.83,146.83,0,0,0,104.2,43.14h0v5a152.21,152.21,0,0,1-152.3-152.3h0Z"/><path class="a" d="M65.91,263.72A139.27,139.27,0,0,1,25,164.84h0A139.31,139.31,0,0,1,65.91,65.94h0A139.42,139.42,0,0,1,164.83,25h0a139.42,139.42,0,0,1,98.94,40.9h0a139.28,139.28,0,0,1,40.93,98.89h0a139.24,139.24,0,0,1-40.93,98.88h0a139.5,139.5,0,0,1-98.94,40.9h0a139.5,139.5,0,0,1-98.92-40.9h0ZM30,164.84a134.72,134.72,0,0,0,134.88,134.8h0a134.72,134.72,0,0,0,134.89-134.8h0A134.72,134.72,0,0,0,164.83,30h0A134.72,134.72,0,0,0,30,164.84h0Z"/><path class="a" d="M164.83,292.24v-5a121.84,121.84,0,0,0,86.56-35.86h0a122.12,122.12,0,0,0,35.81-86.57h0a122,122,0,0,0-35.81-86.56h0a121.9,121.9,0,0,0-86.56-35.89h0A121.86,121.86,0,0,0,78.29,78.28h0a122,122,0,0,0-35.82,86.56h0A122.14,122.14,0,0,0,78.29,251.4h0a121.8,121.8,0,0,0,86.54,35.86h0v5A127.34,127.34,0,0,1,37.5,164.84h0A127.36,127.36,0,0,1,164.83,37.4h0A127.37,127.37,0,0,1,292.18,164.84h0A127.38,127.38,0,0,1,164.83,292.27h0v0h0Z"/><path class="a" d="M83.57,246.11A114.52,114.52,0,0,1,50,164.84h0A114.48,114.48,0,0,1,83.57,83.56h0a114.58,114.58,0,0,1,81.25-33.62h0a2.49,2.49,0,0,1,2.5,2.49h0a2.5,2.5,0,0,1-2.5,2.5h0A109.8,109.8,0,0,0,54.94,164.84h0A109.81,109.81,0,0,0,164.83,274.75h0A109.84,109.84,0,0,0,274.76,164.84h0a2.48,2.48,0,0,1,2.49-2.49h0a2.49,2.49,0,0,1,2.48,2.49h0a114.59,114.59,0,0,1-33.61,81.28h0a114.66,114.66,0,0,1-81.28,33.61h0a114.58,114.58,0,0,1-81.25-33.61h0Z"/><path class="a" d="M92.42,237.24a102.12,102.12,0,0,1-30-72.39h0a102.18,102.18,0,0,1,30-72.42h0a102.11,102.11,0,0,1,72.41-30h0a102.11,102.11,0,0,1,72.43,30h0a102.14,102.14,0,0,1,30,72.42h0a2.49,2.49,0,0,1-2.49,2.47h0a2.49,2.49,0,0,1-2.5-2.47h0A97.09,97.09,0,0,0,233.73,96h0a97,97,0,0,0-68.9-28.52h0A97,97,0,0,0,95.95,96h0a97.09,97.09,0,0,0-28.51,68.88h0a97.12,97.12,0,0,0,28.51,68.86h0a97,97,0,0,0,68.88,28.51h0a2.49,2.49,0,0,1,2.5,2.5h0a2.48,2.48,0,0,1-2.5,2.49h0a102,102,0,0,1-72.41-30h0Z"/><path class="a" d="M101.8,227.83a88.74,88.74,0,0,1-26.05-63h0a88.73,88.73,0,0,1,26.05-63h0a88.93,88.93,0,0,1,63-26h0a88.86,88.86,0,0,1,63,26h0a88.65,88.65,0,0,1,26.07,63h0a88.66,88.66,0,0,1-26.07,63h0a88.82,88.82,0,0,1-63,26h0a88.89,88.89,0,0,1-63-26h0Zm-22.74-63a85.62,85.62,0,0,0,85.77,85.7h0a85.65,85.65,0,0,0,85.79-85.7h0a85.63,85.63,0,0,0-85.79-85.68h0a85.6,85.6,0,0,0-85.77,85.68h0Z"/><path class="a" d="M87.44,164.84a77.46,77.46,0,0,1,77.39-77.48h0a2.49,2.49,0,0,1,2.5,2.51h0a2.48,2.48,0,0,1-2.5,2.47h0a72.13,72.13,0,0,0-51.2,21.27h0a72.23,72.23,0,0,0-21.21,51.23h0a72.25,72.25,0,0,0,21.21,51.25h0a72.12,72.12,0,0,0,51.2,21.25h0A72.06,72.06,0,0,0,216,216.08h0a72.26,72.26,0,0,0,21.21-51.25h0a2.49,2.49,0,0,1,2.49-2.49h0a2.5,2.5,0,0,1,2.49,2.49h0a77.45,77.45,0,0,1-77.41,77.48h0a77.45,77.45,0,0,1-77.39-77.48h0Z"/><path class="a" d="M159.84,227.3a5,5,0,0,1,5-5h0a57.51,57.51,0,0,0,57.47-57.47h0a57.48,57.48,0,0,0-57.47-57.5h0a57.5,57.5,0,0,0-57.48,57.5h0a5,5,0,0,1-5,5h0a5,5,0,0,1-5-5h0a67.46,67.46,0,0,1,67.43-67.45h0a67.47,67.47,0,0,1,67.46,67.45h0a67.41,67.41,0,0,1-67.46,67.43h0a5,5,0,0,1-5-5h0Z"/><path class="a" d="M164.83,114.88"/><path class="a" d="M112.41,164.84a2.49,2.49,0,0,1,2.49-2.49h0a2.49,2.49,0,0,1,2.49,2.49h0a47.49,47.49,0,0,0,47.44,47.44h0a47.46,47.46,0,0,0,47.43-47.44h0a2.52,2.52,0,0,1,2.51-2.49h0a2.5,2.5,0,0,1,2.5,2.49h0a52.45,52.45,0,0,1-52.44,52.44h0a52.44,52.44,0,0,1-52.42-52.44h0Z"/><path class="a" d="M123.19,164.84a41.61,41.61,0,0,1,41.64-41.57h0a41.6,41.6,0,0,1,41.65,41.57h0a41.58,41.58,0,0,1-41.65,41.56h0a41.59,41.59,0,0,1-41.64-41.56h0Zm8.3,0a33.26,33.26,0,0,0,33.34,33.26h0a33.26,33.26,0,0,0,33.36-33.26h0a33.26,33.26,0,0,0-33.36-33.28h0a33.26,33.26,0,0,0-33.34,33.28h0Z"/><path class="a" d="M159.84,189.9a5,5,0,0,1,5-5h0a20.09,20.09,0,0,0,20-20.07h0a20.11,20.11,0,0,0-20-20.08h0a20.1,20.1,0,0,0-20,20.08h0a5,5,0,0,1-5,5h0a5,5,0,0,1-5-5h0a30,30,0,0,1,30-30h0a30,30,0,0,1,30,30h0a30,30,0,0,1-30,30h0a5,5,0,0,1-5-5h0Z"/><path class="a" d="M371.8,123.91h54.63v13.28h-40v20.26h37.86v13.28H386.48v22.36h42.05v13.29H371.8V123.91Z"/><path class="a" d="M474.87,167.24c-3.26-3.38-6.87-5.59-10.6-5.59-10.25,0-16.42,8-16.42,16.77s6.17,16.78,16.42,16.78A13.44,13.44,0,0,0,475.11,190l9.32,10c-5.71,5.72-15.26,7.8-20.15,7.8-16.89,0-30.4-11.76-30.4-29.36s13.51-29.34,30.4-29.34c7.1,0,14.91,2.56,20.27,8.5Z"/><path class="a" d="M519.52,149.07c16.89,0,30.4,11.76,30.4,29.34s-13.51,29.36-30.4,29.36-30.4-11.76-30.4-29.36S502.62,149.07,519.52,149.07Zm0,46.13c10.25,0,16.43-8,16.43-16.78s-6.18-16.77-16.43-16.77-16.42,8-16.42,16.77S509.26,195.19,519.52,195.19Z"/><path class="a" d="M565.23,123.91h14.68v32.85h38.56V123.91h14.67v82.47H618.46V170H579.91v36.34H565.23V123.91Z"/><path class="a" d="M656.61,183.31c0.93,8.26,7.22,13.27,15,13.27,7,0,11.53-3.26,15-7.57l10,7.57A29.08,29.08,0,0,1,673,207.77c-16.89,0-30.4-11.76-30.4-29.36s13.51-29.34,30.4-29.34c15.62,0,26.21,10.95,26.21,30.4v3.85H656.61Zm28.66-10.48c-0.13-8.16-5.48-13.28-14.22-13.28-8.26,0-13.4,5.24-14.44,13.28h28.66Z"/><path class="a" d="M745.43,198.69h-0.35c-4,6.29-10.48,9.08-17.94,9.08-10.37,0-20.39-5.7-20.39-16.76,0-18.17,21.2-19.45,35.18-19.45h3.49V170c0-6.88-5.36-10.49-12.81-10.49a22,22,0,0,0-14.91,5.82L710.37,158c6.17-6.3,14.91-9,23.76-9C758,149.07,758,166.3,758,174.23v32.15H745.43v-7.69Zm-0.82-17.35h-2.9c-7.69,0-21,.59-21,8.62,0,5.11,5.24,7.34,9.78,7.34,9.55,0,14.09-5,14.09-12.83v-3.14Z"/><path class="a" d="M768.68,118.31h14v88.07h-14V118.31Z"/><path class="a" d="M793,162.34V150.46h11.53V134.28h14v16.18h15.38v11.88H818.54V186.8c0,5.59,1.63,9.09,7.81,9.09,2.44,0,5.82-.46,7.57-1.75v11.78c-2.92,1.39-7.81,1.85-11.07,1.85-14.79,0-18.29-6.64-18.29-19.79V162.34H793Z"/><path class="a" d="M861,158.27h0.24c2.21-4.66,7.8-9.2,16.43-9.2,15,0,20.38,10.6,20.38,22v35.31h-14V178.07c0-6.18-.46-16.43-10.25-16.43-9.21,0-12.81,6.76-12.81,14.22v30.52h-14V118.31h14v40Z"/><path class="a" d="M963.44,123.91h9.2l35.07,82.47H996.29l-8.39-20.27H946.66l-8.5,20.27H927.1Zm4.43,12.58h-0.24L950.51,177h33.67Z"/><path class="a" d="M1014,118.31h9.09v88.07H1014V118.31Z"/><path class="a" d="M1033.93,118.31H1043v88.07h-9.08V118.31Z"/><path class="a" d="M1060.07,123.91a6.64,6.64,0,0,1,6.64,6.64,6.64,6.64,0,1,1-13.28,0A6.64,6.64,0,0,1,1060.07,123.91Zm-4.54,28h9.09v54.52h-9.09V151.86Z"/><path class="a" d="M1077,158.85c5.6-5.71,13.75-8.39,21.67-8.39,16.08,0,22.83,7.69,22.83,23.07v23.41a60.83,60.83,0,0,0,.82,9.44h-8.74a39.35,39.35,0,0,1-.58-8.16h-0.23a20.62,20.62,0,0,1-17.94,9.55c-11.07,0-20.27-5.59-20.27-16.19,0-18,21-19.1,34.36-19.1h3.49v-1.64c0-7.91-5-12-13.51-12a24.18,24.18,0,0,0-16.19,5.94Zm26.33,21.31c-11.53,0-19,3.15-19,10.49,0,6.88,5.13,9.44,12,9.44,10.47,0,15.84-7.57,16.07-16.42v-3.51h-9.09Z"/><path class="a" d="M1133,164.79c0-5-.46-9.32-0.46-12.93h8.62c0,2.91.23,5.94,0.23,9h0.23c2.44-5.35,9.19-10.37,18.17-10.37,14.32,0,20.73,9.09,20.73,22.25v33.67h-9.09V173.64c0-9.08-4-14.79-12.47-14.79-11.76,0-16.89,8.5-16.89,21v26.56H1133V164.79Z"/><path class="a" d="M1231.81,165.49c-3.85-4.67-8.27-6.64-13.74-6.64-12.23,0-18.41,9.09-18.41,20.27s7.34,20.26,18.41,20.26c5.94,0,10.48-2.08,13.87-6.75l6.75,6.41c-5.24,6.06-12.7,8.73-20.62,8.73-16.89,0-28.19-11.88-28.19-28.65,0-16.54,11.42-28.66,28.19-28.66,8,0,15.49,2.68,21,8.62Z"/><path class="a" d="M1295.28,196.48c-6.41,8.27-14.1,11.29-24.24,11.29-17.13,0-27.6-12.81-27.6-28.65,0-16.9,11.88-28.66,28-28.66,15.37,0,25.86,10.49,25.86,28.54v2.92h-44c0.7,9.43,7.93,17.46,17.82,17.46,7.81,0,13-2.79,17.36-8.26Zm-7.81-22.25c-0.35-9.2-6.4-15.38-16.42-15.38s-16.65,6.17-17.82,15.38h34.25Z"/></svg>