<svg xmlns="http://www.w3.org/2000/svg" viewBox="0 0 586.52 276.34"><defs><style>.a{fill:#f07381;}.b{fill:#345e7e;}.c{fill:#f6b297;}</style></defs><title>EIDRConnect-logo</title><path class="a" d="M180.82,196.12c9.14,0,28.92,3.33,28.92,15.05v9.25h-10v-5.91c0-6.67-11.51-9.14-18.49-9.14-16.24,0-28.17,11.93-28.17,29.14,0,18,12.26,30.75,28.82,30.75,5.37,0,18.92-1.94,18.92-8.92v-5.91h10v9.25c0,11.18-19,14.95-29.57,14.95-22.8,0-39.25-17.53-39.25-39.67S158.88,196.12,180.82,196.12Z"/><path class="a" d="M250.39,217.62c16.24,0,29.35,11.94,29.35,28.39s-13.12,28.6-29.35,28.6S221,262.57,221,246,234.15,217.62,250.39,217.62Zm0,48c10.22,0,18.71-8.17,18.71-19.57s-8.49-19.35-18.71-19.35-18.71,8.06-18.71,19.35S240.06,265.58,250.39,265.58Z"/><path class="a" d="M288.77,265.26h8.49V229.34A2.1,2.1,0,0,0,294.9,227h-6.67v-8.06h12.26c4.73,0,6.88,2,6.88,6v2.79a15.46,15.46,0,0,1-.32,3.12h0.22a22.88,22.88,0,0,1,21.18-13.23c12.47,0,18.06,7,18.06,20.86v26.77h8.6v8.06h-19V240.85c0-7.63-1.51-13.66-10.21-13.66-11,0-18.17,10-18.17,20.86v17.2h8.6v8.06H288.77v-8.06Z"/><path class="a" d="M362.86,265.26h8.49V229.34A2.1,2.1,0,0,0,369,227h-6.67v-8.06h12.26c4.73,0,6.88,2,6.88,6v2.79a15.46,15.46,0,0,1-.32,3.12h0.22a22.88,22.88,0,0,1,21.18-13.23c12.47,0,18.06,7,18.06,20.86v26.77h8.6v8.06h-19V240.85c0-7.63-1.51-13.66-10.21-13.66-11,0-18.17,10-18.17,20.86v17.2h8.6v8.06H362.86v-8.06Z"/><path class="a" d="M463.39,217.62c15.48,0,23.55,11.4,23.55,25.48,0,1.4-.32,4-0.32,4H446.84c0.65,12,9.14,18.49,18.82,18.49a26.49,26.49,0,0,0,16.24-6.13l4.3,7.63A33.33,33.33,0,0,1,465,274.61c-17.1,0-28.82-12.36-28.82-28.49C436.19,228.81,447.91,217.62,463.39,217.62Zm12.79,22.8c-0.32-9.57-6.13-14.52-13-14.52-8,0-14.41,5.38-15.91,14.52h28.92Z"/><path class="a" d="M524.57,217.62c8.06,0,21.29,3,21.29,12.37v6.67h-9.25v-3.76c0-4.19-6.88-6.24-11.72-6.24-11,0-18.49,7.74-18.49,19.35,0,12.36,8.71,19.57,19.14,19.57,9.25,0,15.48-5.48,17.42-7l4,7.63a33.17,33.17,0,0,1-21.83,8.39c-15.7,0-29.35-10.86-29.35-28.38C495.76,229.56,508.34,217.62,524.57,217.62Z"/><path class="a" d="M562,227h-9.14v-8.06h9.35V204h10.22v14.95h13V227h-13v25.48c0,11.07,7.53,12.47,11.61,12.47a24.55,24.55,0,0,0,2.47-.11v8.71a29.37,29.37,0,0,1-3.76.22c-6.88,0-20.75-2.15-20.75-20.32V227Z"/><path class="b" d="M146.54,0h102a4.54,4.54,0,0,1,4.54,4.54V21.07a4.54,4.54,0,0,1-4.54,4.54H172.88a4.54,4.54,0,0,0-4.54,4.54V72.45A4.54,4.54,0,0,0,172.88,77h63.29a4.54,4.54,0,0,1,4.54,4.54v15a4.54,4.54,0,0,1-4.54,4.54H172.88a4.54,4.54,0,0,0-4.54,4.54v43.79a4.54,4.54,0,0,0,4.54,4.54h75.71a4.54,4.54,0,0,1,4.54,4.54V175a4.54,4.54,0,0,1-4.54,4.54h-102A4.54,4.54,0,0,1,142,175V4.54A4.54,4.54,0,0,1,146.54,0"/><path class="b" d="M280.77,0h15.35a5.49,5.49,0,0,1,5.49,5.49V174.1a5.49,5.49,0,0,1-5.49,5.49H280.77a5.49,5.49,0,0,1-5.49-5.49V5.49A5.49,5.49,0,0,1,280.77,0"/><path class="b" d="M323.77,5.6a5.6,5.6,0,0,1,5.6-5.6h55.26q35.33,0.25,53,30.3a55.09,55.09,0,0,1,8,21.19q1.31,11.08,1.31,38.31,0,28.94-2,40.4A46.14,46.14,0,0,1,442,140.54a96.75,96.75,0,0,1-4.89,9.24,61.5,61.5,0,0,1-21.24,20.94q-13.48,8.87-33.05,8.87H329.38a5.6,5.6,0,0,1-5.6-5.6V5.6Zm26.33,142.78a5.6,5.6,0,0,0,5.6,5.6h25.93q22.22,0,32.26-15.68a30.51,30.51,0,0,0,5.61-14.69q1.08-8.77,1.08-32.83,0-23.45-1.08-33.58-1.44-10.12-6.81-16.42-11-15.67-31.06-15.18H355.71a5.6,5.6,0,0,0-5.6,5.6V148.38Z"/><path class="c" d="M74.94,58.75a27.2,27.2,0,0,1,7.31-5.2,0.94,0.94,0,0,0,.47-1.19l-3.44-8.65a1,1,0,0,0-.88-0.6H0.95a1,1,0,0,0-.95.95V74.37a1,1,0,0,0,.95.95h65.3a0.94,0.94,0,0,0,.93-0.83A27.26,27.26,0,0,1,74.94,58.75Z"/><path class="c" d="M81,200.92h-80a1,1,0,0,0-.95.95v30.5a1,1,0,0,0,.95.95H89.76a1,1,0,0,0,.91-1.21l-8.78-30.5A1,1,0,0,0,81,200.92Z"/><path class="c" d="M77.32,185.68a0.94,0.94,0,0,0-1-.67,25.49,25.49,0,0,1-3.18.21,27.26,27.26,0,0,1-26.93-22.89,0.94,0.94,0,0,0-.93-0.8H0.95a1,1,0,0,0-.95.95v30.41a1,1,0,0,0,.95.95H78.41a1,1,0,0,0,.91-1.21Z"/><path class="c" d="M53.79,138.59a27.26,27.26,0,0,1,19.32-8,26,26,0,0,1,3.62.27,0.94,0.94,0,0,0,1-.65l2.11-6.92a1,1,0,0,0-.91-1.22h-78A1,1,0,0,0,0,123v30.32a1,1,0,0,0,.95.95h44.3a0.94,0.94,0,0,0,.93-0.8A27.24,27.24,0,0,1,53.79,138.59Z"/><path class="b" d="M94.26,50.75a27.26,27.26,0,0,1,19.32,8,26.72,26.72,0,0,1,3.2,3.87,1,1,0,0,0,1.73-.56V6.83A6.83,6.83,0,0,0,111.67,0H71.11a1,1,0,0,0-.88,1.3L89.77,50.42a0.94,0.94,0,0,0,1,.58A25.86,25.86,0,0,1,94.26,50.75Z"/><path class="c" d="M61.11,0H5.68A5.68,5.68,0,0,0,0,5.68V35.33a0.52,0.52,0,0,0,.52.52H75a0.8,0.8,0,0,0,.74-1.09l-13.54-34A1.15,1.15,0,0,0,61.11,0Z"/><path class="c" d="M85.5,104.88a0.94,0.94,0,0,0-.59-1.16A27.17,27.17,0,0,1,67.48,83.36a0.94,0.94,0,0,0-.92-0.77H0.95a1,1,0,0,0-.95.95v30.32a1,1,0,0,0,.95.95H81.77a1,1,0,0,0,.91-0.67Z"/><path class="c" d="M0,241.35v28.16a6.83,6.83,0,0,0,6.83,6.83h95.31a1,1,0,0,0,.91-1.21l-9.79-34a1,1,0,0,0-.91-0.69H0.95A1,1,0,0,0,0,241.35Z"/><path class="b" d="M113.57,97.39a27.26,27.26,0,0,1-19.32,8c-0.44,0-.87,0-1.3-0.07l-8.25,27a0.94,0.94,0,0,0,.49,1.12,27.28,27.28,0,0,1-.39,49.14,0.94,0.94,0,0,0-.51,1.11l26.46,92a1,1,0,0,0,.91.69h0a6.83,6.83,0,0,0,6.83-6.83V94.08a1,1,0,0,0-1.73-.56A26.73,26.73,0,0,1,113.57,97.39Z"/><path class="a" d="M84.2,146.81A15.9,15.9,0,0,0,81,144.37a15.49,15.49,0,0,0-3.34-1.48,15.68,15.68,0,0,0-3.6-.63c-0.33,0-.65,0-1,0a15.7,15.7,0,0,0,0,31.39c0.25,0,.48,0,0.73,0a15.7,15.7,0,0,0,3.61-.58,15.49,15.49,0,0,0,3.37-1.41A15.89,15.89,0,0,0,84.2,169,15.7,15.7,0,0,0,84.2,146.81Zm-11.1,11.1h0Z"/><line class="a" x1="73.1" y1="157.91" x2="73.1" y2="157.91"/><path class="a" d="M105.36,67a15.62,15.62,0,0,0-10.83-4.58H94.26a15.8,15.8,0,0,0-3.48.4A15.47,15.47,0,0,0,87.35,64a15.83,15.83,0,0,0-4.19,3,15.63,15.63,0,0,0-4.34,8.35,15.39,15.39,0,0,0,.41,7.26,15.76,15.76,0,0,0,13.49,11.1c0.51,0,1,.08,1.54.08a15.88,15.88,0,0,0,2.29-.18A15.68,15.68,0,0,0,105.36,67Z"/><path class="b" d="M554.92,103.84a4.14,4.14,0,0,1,1.87-5.61q29.27-13.71,29.73-48.09-0.72-24.88-17.25-38.31Q555.54,0,533.79,0H473c-3.89,0-3.94,2.65-3.94,5.5V174.09c0,2.85,1.08,5.5,3.94,5.5h15a4.17,4.17,0,0,0,4.17-4.17V107a4.18,4.18,0,0,1,4.17-4.18h26.91a4.17,4.17,0,0,1,3.78,2.41l29.68,71.94a4.16,4.16,0,0,0,3.77,2.4h21.86a4.17,4.17,0,0,0,3.72-6.05ZM532.11,78.72H496.34a4.18,4.18,0,0,1-4.17-4.17V28.3a4.17,4.17,0,0,1,4.17-4.17h37.21q12.68,0,19.38,5.56,8.49,6.3,8.73,20.38,0,11.73-7.3,19.76-7.42,8.65-22.26,8.89"/></svg>