<svg xmlns="http://www.w3.org/2000/svg" viewBox="0 0 2006.21 276.34"><defs><style>.a{fill:#f07381;}.b{fill:#f6b297;}.c{fill:#345e7e;}</style></defs><title>eidr-connect-logo-long</title><path class="a" d="M1035.26,113c23.34,0,73.88,8.51,73.88,38.45v23.62H1083.6V160c0-17-29.39-23.34-47.24-23.34-41.47,0-72,30.48-72,74.43,0,45.87,31.31,78.55,73.61,78.55,13.73,0,48.34-4.94,48.34-22.79V251.71h25.54v23.62c0,28.57-48.61,38.18-75.53,38.18-58.23,0-100.25-44.77-100.25-101.34C936.11,155.31,979.23,113,1035.26,113Z" transform="translate(-65.34 -37.17)"/><path class="a" d="M1213,167.94c41.47,0,75,30.49,75,72.51,0,42.29-33.51,73.06-75,73.06s-75-30.76-75-73.06C1138,198.43,1171.49,167.94,1213,167.94Zm0,122.49c26.09,0,47.79-20.87,47.79-50,0-28.84-21.69-49.44-47.79-49.44-26.37,0-47.79,20.6-47.79,49.44C1165.17,269.56,1186.6,290.43,1213,290.43Z" transform="translate(-65.34 -37.17)"/><path class="a" d="M1311,289.61h21.69V197.88c0-4.12-2.19-6-6-6h-17v-20.6H1341c12.09,0,17.58,5.22,17.58,15.38v7.14a39.49,39.49,0,0,1-.82,8h0.55c2.74-7.42,19-33.78,54.11-33.78,31.86,0,46.14,17.85,46.14,53.28v68.39h22v20.6h-48.62V227.27c0-19.5-3.84-34.88-26.09-34.88-28,0-46.42,25.54-46.42,53.28v43.94h22v20.6H1311v-20.6Z" transform="translate(-65.34 -37.17)"/><path class="a" d="M1500.26,289.61H1522V197.88c0-4.12-2.19-6-6-6h-17v-20.6h31.31c12.09,0,17.58,5.22,17.58,15.38v7.14a39.49,39.49,0,0,1-.82,8h0.55c2.74-7.42,19-33.78,54.11-33.78,31.86,0,46.14,17.85,46.14,53.28v68.39h22v20.6h-48.62V227.27c0-19.5-3.84-34.88-26.09-34.88-28,0-46.42,25.54-46.42,53.28v43.94h22v20.6h-70.31v-20.6Z" transform="translate(-65.34 -37.17)"/><path class="a" d="M1757.06,167.94c39.55,0,60.15,29.12,60.15,65.09,0,3.57-.82,10.16-0.82,10.16H1714.77c1.65,30.76,23.34,47.24,48.07,47.24,24.17,0,41.47-15.65,41.47-15.65l11,19.5s-20.87,19.22-54.11,19.22c-43.67,0-73.61-31.58-73.61-72.78C1687.58,196.51,1717.52,167.94,1757.06,167.94Zm32.68,58.23c-0.82-24.44-15.65-37.08-33.23-37.08-20.33,0-36.8,13.73-40.65,37.08h73.88Z" transform="translate(-65.34 -37.17)"/><path class="a" d="M1913.35,167.94c20.6,0,54.38,7.69,54.38,31.59v17h-23.62v-9.61c0-10.72-17.58-15.93-29.94-15.93-28,0-47.24,19.78-47.24,49.44,0,31.58,22.25,50,48.89,50,23.62,0,39.55-14,44.49-17.85l10.16,19.5c-6.32,5.77-26.37,21.42-55.75,21.42-40.1,0-75-27.74-75-72.51C1839.74,198.43,1871.87,167.94,1913.35,167.94Z" transform="translate(-65.34 -37.17)"/><path class="a" d="M2008.93,191.83h-23.34v-20.6h23.89V133.06h26.09v38.18h33.23v20.6h-33.23v65.09c0,28.29,19.22,31.86,29.66,31.86a62.71,62.71,0,0,0,6.32-.28v22.25a75,75,0,0,1-9.61.55c-17.58,0-53-5.49-53-51.91V191.83Z" transform="translate(-65.34 -37.17)"/><path class="b" d="M140.28,95.92a27.2,27.2,0,0,1,7.31-5.2,0.94,0.94,0,0,0,.47-1.19l-3.44-8.65a1,1,0,0,0-.88-0.6H66.28a1,1,0,0,0-.95.95v30.32a1,1,0,0,0,.95.95h65.3a0.94,0.94,0,0,0,.93-0.83A27.26,27.26,0,0,1,140.28,95.92Z" transform="translate(-65.34 -37.17)"/><path class="b" d="M146.32,238.09h-80a1,1,0,0,0-.95.95v30.5a1,1,0,0,0,.95.95H155.1a1,1,0,0,0,.91-1.21l-8.78-30.5A1,1,0,0,0,146.32,238.09Z" transform="translate(-65.34 -37.17)"/><path class="b" d="M142.65,222.85a0.94,0.94,0,0,0-1-.67,25.49,25.49,0,0,1-3.18.21,27.26,27.26,0,0,1-26.93-22.89,0.94,0.94,0,0,0-.93-0.8H66.28a1,1,0,0,0-.95.95v30.41a1,1,0,0,0,.95.95h77.46a1,1,0,0,0,.91-1.21Z" transform="translate(-65.34 -37.17)"/><path class="b" d="M119.12,175.76a27.26,27.26,0,0,1,19.32-8,26,26,0,0,1,3.62.27,0.94,0.94,0,0,0,1-.65l2.11-6.92a1,1,0,0,0-.91-1.22h-78a1,1,0,0,0-.95.95V190.5a1,1,0,0,0,.95.95h44.3a0.94,0.94,0,0,0,.93-0.8A27.24,27.24,0,0,1,119.12,175.76Z" transform="translate(-65.34 -37.17)"/><path class="c" d="M159.59,87.92a27.26,27.26,0,0,1,19.32,8,26.72,26.72,0,0,1,3.2,3.87,1,1,0,0,0,1.73-.56V44A6.83,6.83,0,0,0,177,37.17H136.44a1,1,0,0,0-.88,1.3L155.1,87.59a0.94,0.94,0,0,0,1,.58A25.86,25.86,0,0,1,159.59,87.92Z" transform="translate(-65.34 -37.17)"/><path class="b" d="M126.45,37.17H71a5.68,5.68,0,0,0-5.68,5.68V72.5a0.52,0.52,0,0,0,.52.52h74.47a0.8,0.8,0,0,0,.74-1.09l-13.54-34A1.15,1.15,0,0,0,126.45,37.17Z" transform="translate(-65.34 -37.17)"/><path class="b" d="M150.83,142.05a0.94,0.94,0,0,0-.59-1.16,27.17,27.17,0,0,1-17.42-20.37,0.94,0.94,0,0,0-.92-0.77H66.28a1,1,0,0,0-.95.95V151a1,1,0,0,0,.95.95H147.1a1,1,0,0,0,.91-0.67Z" transform="translate(-65.34 -37.17)"/><path class="b" d="M65.34,278.52v28.16a6.83,6.83,0,0,0,6.83,6.83h95.31a1,1,0,0,0,.91-1.21l-9.79-34a1,1,0,0,0-.91-0.69H66.28A1,1,0,0,0,65.34,278.52Z" transform="translate(-65.34 -37.17)"/><path class="c" d="M178.91,134.55a27.26,27.26,0,0,1-19.32,8c-0.44,0-.87,0-1.3-0.07l-8.25,27a0.94,0.94,0,0,0,.49,1.12,27.28,27.28,0,0,1-.39,49.14,0.94,0.94,0,0,0-.51,1.11l26.46,92a1,1,0,0,0,.91.69h0a6.83,6.83,0,0,0,6.83-6.83V131.25a1,1,0,0,0-1.73-.56A26.73,26.73,0,0,1,178.91,134.55Z" transform="translate(-65.34 -37.17)"/><path class="a" d="M149.54,184a15.9,15.9,0,0,0-3.17-2.43,15.49,15.49,0,0,0-3.34-1.48,15.68,15.68,0,0,0-3.6-.63c-0.33,0-.65,0-1,0a15.7,15.7,0,0,0,0,31.39c0.25,0,.48,0,0.73,0a15.7,15.7,0,0,0,3.61-.58,15.49,15.49,0,0,0,3.37-1.41,15.89,15.89,0,0,0,3.39-2.57A15.7,15.7,0,0,0,149.54,184Zm-11.1,11.1h0Z" transform="translate(-65.34 -37.17)"/><line class="a" x1="73.1" y1="157.91" x2="73.1" y2="157.91"/><path class="a" d="M170.69,104.14a15.62,15.62,0,0,0-10.83-4.58h-0.27a15.8,15.8,0,0,0-3.48.4,15.47,15.47,0,0,0-3.42,1.22,15.83,15.83,0,0,0-4.19,3,15.63,15.63,0,0,0-4.34,8.35,15.39,15.39,0,0,0,.41,7.26A15.76,15.76,0,0,0,158,130.86c0.51,0,1,.08,1.54.08a15.88,15.88,0,0,0,2.29-.18A15.68,15.68,0,0,0,170.69,104.14Z" transform="translate(-65.34 -37.17)"/><path class="c" d="M228.62,37.17h157a7,7,0,0,1,7,7V69.58a7,7,0,0,1-7,7H269.14a7,7,0,0,0-7,7v65.1a7,7,0,0,0,7,7h97.39a7,7,0,0,1,7,7v23.13a7,7,0,0,1-7,7H269.14a7,7,0,0,0-7,7v67.38a7,7,0,0,0,7,7H385.63a7,7,0,0,1,7,7v25.43a7,7,0,0,1-7,7h-157a7,7,0,0,1-7-7V44.16a7,7,0,0,1,7-7" transform="translate(-65.34 -37.17)"/><path class="c" d="M435.16,37.17h23.63a8.45,8.45,0,0,1,8.45,8.45V305.05a8.45,8.45,0,0,1-8.45,8.45H435.16a8.45,8.45,0,0,1-8.44-8.45V45.62a8.45,8.45,0,0,1,8.44-8.45" transform="translate(-65.34 -37.17)"/><path class="c" d="M501.33,45.78a8.61,8.61,0,0,1,8.62-8.61h85q54.36,0.38,81.54,46.62a84.77,84.77,0,0,1,12.29,32.6q2,17.05,2,58.94,0,44.53-3.12,62.17a71,71,0,0,1-4.41,15.92,148.87,148.87,0,0,1-7.52,14.21,94.64,94.64,0,0,1-32.69,32.22q-20.75,13.64-50.86,13.65H509.95a8.62,8.62,0,0,1-8.62-8.62V45.78Zm40.52,219.7a8.62,8.62,0,0,0,8.62,8.62h39.91q34.18,0,49.63-24.12,6.79-8.92,8.63-22.6,1.66-13.49,1.66-50.52,0-36.09-1.66-51.67-2.21-15.58-10.47-25.26-16.92-24.12-47.79-23.36H550.47a8.62,8.62,0,0,0-8.62,8.61v180.3Z" transform="translate(-65.34 -37.17)"/><path class="c" d="M857,196.95a6.37,6.37,0,0,1,2.88-8.64q45-21.1,45.74-74Q904.51,76,879.08,55.36q-21.14-18.2-54.6-18.2H731c-6,0-6.06,4.07-6.06,8.47V305c0,4.39,1.67,8.46,6.06,8.46h23a6.41,6.41,0,0,0,6.41-6.41V201.83a6.43,6.43,0,0,1,6.42-6.43h41.4a6.42,6.42,0,0,1,5.82,3.7l45.68,110.7a6.41,6.41,0,0,0,5.81,3.69h33.64a6.42,6.42,0,0,0,5.73-9.31ZM821.9,158.3h-55a6.43,6.43,0,0,1-6.42-6.42V80.72a6.42,6.42,0,0,1,6.42-6.42h57.26q19.51,0,29.82,8.55,13.06,9.69,13.43,31.36,0,18-11.23,30.41-11.42,13.3-34.25,13.68" transform="translate(-65.34 -37.17)"/></svg>